<?xml version="1.0" standalone="no"?>
<!DOCTYPE svg PUBLIC "-//W3C//DTD SVG 20010904//EN"
 "http://www.w3.org/TR/2001/REC-SVG-20010904/DTD/svg10.dtd">
<svg version="1.0" xmlns="http://www.w3.org/2000/svg"
 width="512.000000pt" height="512.000000pt" viewBox="0 0 512.000000 512.000000"
 preserveAspectRatio="xMidYMid meet">
<metadata>
Created by potrace 1.11, written by Peter Selinger 2001-2013
</metadata>
<g transform="translate(0.000000,512.000000) scale(0.100000,-0.100000)"
fill="#000000" stroke="none">
<path d="M370 4920 c-16 -16 -17 -142 -13 -2091 2 -1141 4 -2201 5 -2356 l3
-281 283 1 c256 1 284 3 298 18 15 16 16 115 16 986 -1 532 1 985 4 1006 4 27
11 38 27 42 12 3 123 8 247 10 296 4 362 10 485 41 349 87 613 330 725 665 29
87 64 240 75 334 4 28 9 64 12 80 11 64 9 365 -3 465 -29 229 -91 447 -166
580 -126 223 -297 357 -577 450 -205 69 -194 68 -830 68 -529 -1 -575 -2 -591
-18z m1030 -604 c14 -3 52 -7 85 -11 55 -5 89 -12 155 -31 66 -19 152 -93 193
-164 26 -46 63 -151 71 -205 5 -29 14 -91 22 -145 5 -36 5 -311 0 -340 -3 -14
-7 -43 -11 -65 -26 -182 -59 -267 -135 -345 -47 -48 -139 -102 -195 -114 -16
-3 -41 -9 -55 -12 -14 -4 -141 -8 -283 -10 -255 -3 -258 -2 -271 19 -12 18
-14 140 -15 697 0 448 4 684 10 702 6 15 18 29 27 32 20 5 365 -2 402 -8z"/>
<path d="M2688 4835 c-1 0 -2 -1039 -3 -2310 -2 -1509 1 -2314 8 -2323 7 -9
220 -12 1002 -12 891 0 994 2 1006 16 18 22 19 558 1 576 -10 10 -171 13 -698
13 l-686 0 -19 24 c-10 13 -19 33 -20 45 -2 63 1 3934 3 3951 3 19 -5 19 -294
20 -164 0 -299 0 -300 0z"/>
</g>
</svg>
